<?xml version="1.0" encoding="UTF-8"?>
<svg version="1.1" xmlns="http://www.w3.org/2000/svg" width="225" height="225">
<path d="M0 0 C74.25 0 148.5 0 225 0 C225 74.25 225 148.5 225 225 C150.75 225 76.5 225 0 225 C0 150.75 0 76.5 0 0 Z " fill="#525252" transform="translate(0,0)"/>
<path d="M0 0 C1.37478516 0.01740234 1.37478516 0.01740234 2.77734375 0.03515625 C3.69644531 0.04417969 4.61554688 0.05320313 5.5625 0.0625 C6.27277344 0.07410156 6.98304688 0.08570313 7.71484375 0.09765625 C7.57253567 1.51468138 7.42583629 2.93126585 7.27734375 4.34765625 C7.19613281 5.1365625 7.11492187 5.92546875 7.03125 6.73828125 C6.73849382 8.92130264 6.29419956 10.97497445 5.71484375 13.09765625 C3.40484375 13.09765625 1.09484375 13.09765625 -1.28515625 13.09765625 C-1.28515625 13.75765625 -1.28515625 14.41765625 -1.28515625 15.09765625 C-3.92515625 15.09765625 -6.56515625 15.09765625 -9.28515625 15.09765625 C-9.26453125 14.04578125 -9.24390625 12.99390625 -9.22265625 11.91015625 C-9.27422114 8.76469782 -9.57013273 6.1365062 -10.28515625 3.09765625 C-10.28515625 2.76765625 -10.28515625 2.43765625 -10.28515625 2.09765625 C-9.15078125 1.95328125 -8.01640625 1.80890625 -6.84765625 1.66015625 C-3.70011635 1.16317627 -2.86991575 0.12264597 0 0 Z " fill="#9D9D9D" transform="translate(123.28515625,-0.09765625)"/>
<path d="M0 0 C2.57161458 0.03255208 5.14322917 0.06510417 7.71484375 0.09765625 C7.71484375 3.72765625 7.71484375 7.35765625 7.71484375 11.09765625 C4.74484375 11.09765625 1.77484375 11.09765625 -1.28515625 11.09765625 C-1.28515625 11.75765625 -1.28515625 12.41765625 -1.28515625 13.09765625 C-3.59515625 13.09765625 -5.90515625 13.09765625 -8.28515625 13.09765625 C-8.57390625 12.21078125 -8.86265625 11.32390625 -9.16015625 10.41015625 C-10.11664373 7.59383201 -11.15314571 4.84682469 -12.28515625 2.09765625 C-11.32802734 2.00677734 -11.32802734 2.00677734 -10.3515625 1.9140625 C-9.11212891 1.78837891 -9.11212891 1.78837891 -7.84765625 1.66015625 C-7.02394531 1.57894531 -6.20023438 1.49773438 -5.3515625 1.4140625 C-2.82680995 1.02747468 -2.62280976 0.11208589 0 0 Z " fill="#A8A8A8" transform="translate(64.28515625,-0.09765625)"/>
<path d="M0 0 C1.37478516 0.01740234 1.37478516 0.01740234 2.77734375 0.03515625 C3.69644531 0.04417969 4.61554688 0.05320313 5.5625 0.0625 C6.27277344 0.07410156 6.98304688 0.08570313 7.71484375 0.09765625 C7.64265625 0.80792969 7.57046875 1.51820313 7.49609375 2.25 C7.356875 3.62865234 7.356875 3.62865234 7.21484375 5.03515625 C7.075625 6.40994141 7.075625 6.40994141 6.93359375 7.8125 C6.77192897 9.45258107 6.77192897 9.45258107 6.71484375 11.09765625 C3.74484375 11.09765625 0.77484375 11.09765625 -2.28515625 11.09765625 C-2.28515625 11.75765625 -2.28515625 12.41765625 -2.28515625 13.09765625 C-4.59515625 13.09765625 -6.90515625 13.09765625 -9.28515625 13.09765625 C-9.26453125 12.02515625 -9.24390625 10.95265625 -9.22265625 9.84765625 C-9.27095465 6.94975201 -9.4167151 4.81153484 -10.28515625 2.09765625 C-9.15078125 1.95328125 -8.01640625 1.80890625 -6.84765625 1.66015625 C-3.70011635 1.16317627 -2.86991575 0.12264597 0 0 Z " fill="#989898" transform="translate(145.28515625,-0.09765625)"/>
<path d="M0 0 C5.28 0 10.56 0 16 0 C15.67 0.99 15.34 1.98 15 3 C10.05 3 5.1 3 0 3 C0 2.01 0 1.02 0 0 Z " fill="#A1A1A1" transform="translate(0,0)"/>
<path d="M0 0 C1.134375 0.020625 2.26875 0.04125 3.4375 0.0625 C3.4375 1.0525 3.4375 2.0425 3.4375 3.0625 C-1.5125 3.0625 -6.4625 3.0625 -11.5625 3.0625 C-11.5625 2.7325 -11.5625 2.4025 -11.5625 2.0625 C-10.428125 1.918125 -9.29375 1.77375 -8.125 1.625 C-4.13770521 0.99542714 -4.0324238 0.07074428 0 0 Z " fill="#BABABA" transform="translate(68.5625,13.9375)"/>
<path d="M0 0 C0 0.99 0 1.98 0 3 C-4.62 3 -9.24 3 -14 3 C-14 2.67 -14 2.34 -14 2 C-9.15758367 0.66416101 -5.06562383 -0.25328119 0 0 Z " fill="#AEAEAE" transform="translate(151,12)"/>
</svg>
